<?xml version="1.0" standalone="no"?>
<!DOCTYPE svg PUBLIC "-//W3C//DTD SVG 20010904//EN"
 "http://www.w3.org/TR/2001/REC-SVG-20010904/DTD/svg10.dtd">
<svg version="1.0" xmlns="http://www.w3.org/2000/svg"
 width="800.000000pt" height="532.000000pt" viewBox="0 0 800.000000 532.000000"
 preserveAspectRatio="xMidYMid meet">

<g transform="translate(0.000000,532.000000) scale(0.100000,-0.100000)"
fill="#444444" stroke="none">
<path d="M4 5311 c-2 -2 -4 -1196 -4 -2653 l0 -2648 265 0 265 0 0 1044 0
1044 433 5 c462 4 515 9 737 63 223 55 435 151 591 269 327 245 514 597 570
1068 18 153 7 535 -20 674 -109 575 -441 922 -1020 1067 -230 58 -246 59
-1059 65 -415 3 -756 4 -758 2z m1419 -546 c170 -22 297 -58 422 -120 179 -88
292 -197 374 -362 78 -154 111 -322 111 -558 -1 -546 -212 -875 -654 -1014
-207 -66 -447 -91 -873 -91 l-273 0 0 1080 0 1080 389 0 c289 0 420 -4 504
-15z"/>
<path d="M6966 5248 c2 -18 13 -134 24 -258 12 -124 27 -294 35 -379 8 -85 15
-155 15 -157 0 -1 -154 49 -342 112 -189 63 -348 114 -353 114 -9 0 -63 -352
-57 -370 1 -3 147 -19 325 -36 178 -17 329 -33 335 -35 6 -2 -85 -156 -204
-343 -172 -272 -212 -342 -202 -351 18 -17 288 -185 296 -185 4 0 70 169 147
375 77 206 142 375 145 375 3 0 75 -169 160 -375 116 -282 159 -374 169 -370
28 11 290 180 290 188 1 4 -98 159 -218 345 l-219 337 31 6 c18 4 170 19 340
35 l307 28 0 25 c0 38 -40 345 -46 350 -3 3 -102 -27 -222 -66 -119 -39 -279
-92 -355 -116 l-137 -45 5 46 c3 26 19 193 35 372 16 179 32 344 35 368 l6 42
-175 0 -175 0 5 -32z"/>
<path d="M3320 2063 l0 -2053 200 0 200 0 0 965 0 965 928 -2 927 -3 0 -962 0
-963 203 0 202 0 0 2055 0 2055 -200 -2 -200 -3 0 -872 0 -873 -930 0 -930 0
0 873 0 872 -200 0 -200 0 0 -2052z"/>
</g>
</svg>
